<svg version="1" xmlns="http://www.w3.org/2000/svg" width="346.667" height="346.667" viewBox="0 0 260.000000 260.000000"><path d="M116.5.7C64.3 6.4 20 43.4 5.5 93.5c-3.9 13.6-5.3 24.1-5 38.8.3 13.8.7 17.3 3.1 27.2 6.2 25 16.6 43.6 34.4 61.6 20.3 20.5 44.8 33.1 73 37.5 6 1 29.1 1.1 36 .2 52.1-6.6 96-45.8 108.9-97.3 3-11.8 3.9-20.5 3.6-34.5-.7-35-14.8-67-40.4-91.3l-6.1-5.8-3 3.4c-1.6 1.9-3 3.7-3 3.9 0 .3 3.5 4.1 7.8 8.5 22.3 22.8 34 50.4 34.7 81.4.7 34.1-11.6 64.6-35.7 88.1-16.1 15.8-32.9 25.2-54.8 30.9-22.9 6-49 4.3-72.5-4.6-26.2-9.8-51-32.4-63.8-58-3.3-6.6-8.2-20.6-9.6-27.5-.6-3-1.4-6.6-1.7-8-1.2-5.8-1-27.1.3-36 7.4-49.8 46.2-90.1 96-99.6 9.8-1.9 27.9-2.5 36.3-1.3 11.5 1.6 13.8 2.1 23.9 5.5 5.7 1.9 10.5 3.3 10.5 3.2 2.3-4.6 3.5-8.1 3.1-8.8-.8-1.3-18.4-6.8-27.4-8.6-7-1.4-30.5-2.4-37.6-1.7z"/><path d="M56 70.7c0 .5 2.5 5.3 5.4 10.8l5.4 10 23.1.3 23.1.2V70H84.5c-15.7 0-28.5.3-28.5.7zM122.9 74.7c-.1 6.1 0 110.4 0 112.1.1 1 2.9 1.2 12.4 1l12.2-.3v-13.6c0-11.3.3-14 1.6-15.5 1-1.1 12.6-16.1 25.8-33.4 13.3-17.3 24.7-32.2 25.4-33 .7-.8 4.3-5.6 8.1-10.5 3.8-5 7.3-9.6 7.9-10.3.7-.9-2.3-1.2-14.4-1.2l-15.4.1-19 24.9c-10.4 13.7-19.2 24.7-19.5 24.5-.3-.2-.5-11.4-.5-24.9V70H123l-.1 4.7zM89 123.4c0 29.5-.3 32.2-4.3 36.4-4 4.3-7.9 5.2-23.3 5.2H47l-.1 3.5c-.1 4.4-.1 7.1 0 14.1l.1 5.6 18.3-.4c18-.3 18.3-.3 24.7-3.4 8.2-3.9 15.2-10.9 19.3-19.4l3.2-6.4.3-25.2.3-25.2-6.3-3.4c-3.5-2-8.9-5-12-6.7L89 94.9v28.5z"/><path d="M173.1 134.2c-1.6 4.3-8 22.3-8.3 23.4-.2.9 9.1 13.9 20.8 29 .9 1.2 4 1.4 16.2 1.2l15.1-.3-21.5-27.8c-19.4-25.3-21.5-27.7-22.3-25.5z"/></svg>